:version 1.10
:name ASF
:units
  mass 1
  length 1
  angle deg
:documentation
  ASF file generated by Kaydara
:root
  axis xyz
  order  tx ty tz rx ry rz
  position 0 0 0
  orientation 0 0 0
:bonedata
  begin
    id 1
    name RightUpLegDummy
    direction -1 2.30186e-007 8.31532e-007
    length 4.04083
    axis 0 0 0 xyz
  end
  begin
    id 2
    name RightUpLeg
    direction -0.000919234 -0.999985 0.00544864
    length 17.4221
    axis -3.80308 -0.00076134 -0.0523649 xyz
    dof rx ry rz
  end
  begin
    id 3
    name RightLeg
    direction -0.000919271 -0.999984 -0.00555045
    length 17.1239
    axis 4.00314 0.0181274 -0.183583 xyz
    dof rx ry rz
  end
  begin
    id 4
    name RightFoot
    direction -2.57843e-005 -4.04509e-007 1
    length 6.72091
    axis 8.18909e-005 -0.122003 -0.403008 xyz
    dof rx ry rz
  end
  begin
    id 5
    name RightToes
    direction 0.00116825 -0.014069 0.9999
    length 3.85082
    axis 0.000514414 0.540638 -0.356797 xyz
    dof rx ry rz
  end
  begin
    id 6
    name SpineDummy
    direction 0.0168869 0.966876 -0.254689
    length 6.99894
    axis 0 0 0 xyz
  end
  begin
    id 7
    name Spine
    direction -0.0132008 0.999903 0.00446247
    length 11.1999
    axis -0.00148109 0.00725429 0.756411 xyz
    dof rx ry rz
  end
  begin
    id 8
    name Spine1
    direction 0 0 0
    length 0
    axis -0.000934958 0.0245693 1.46543 xyz
    dof rx ry rz
  end
  begin
    id 9
    name HEadDummy
    direction -0.0255732 0.999672 0.00128215
    length 3.43865
    axis -0.000934958 0.0245693 1.46543 xyz
  end
  begin
    id 10
    name HEad
    direction -0.0472656 0.980052 0.19304
    length 5.12695
    axis -0.000934954 0.0245693 1.46543 xyz
    dof rx ry rz
  end
  begin
    id 11
    name LeftShoulder1Dummy
    direction 0.953098 0.301717 -0.023914
    length 3.68488
    axis -0.000934958 0.0245693 1.46543 xyz
  end
  begin
    id 12
    name LeftShoulder1
    direction 0.962466 0.271167 0.0112566
    length 3.13809
    axis -0.000934958 0.0245693 1.46543 xyz
    dof rx ry rz
  end
  begin
    id 13
    name LeftArm
    direction 0.999943 0.00455037 -0.00961766
    length 11.3419
    axis -23.1648 0.685459 1.22814 xyz
    dof rx ry rz
  end
  begin
    id 14
    name LeftForeArm
    direction 0.999332 0.0131969 0.0340885
    length 8.70632
    axis -9.90633 0.618216 0.0826942 xyz
    dof rx ry rz
  end
  begin
    id 15
    name LeftHand
    direction 0.994373 -0.0366703 0.0993905
    length 5.32135
    axis 0.00675269 0.680415 0.445699 xyz
    dof rx ry rz
  end
  begin
    id 16
    name RightShoulderDummy
    direction -0.967298 0.252589 -0.0230903
    length 3.68488
    axis -0.000934958 0.0245693 1.46543 xyz
  end
  begin
    id 17
    name RightShoulder
    direction -0.975062 0.221602 0.0120823
    length 3.13809
    axis 0.216257 0.0246515 1.45863 xyz
    dof rx ry rz
  end
  begin
    id 18
    name RightArm
    direction -0.99886 -0.00851186 -0.0469687
    length 10.3947
    axis -23.196 0.23503 -0.532632 xyz
    dof rx ry rz
  end
  begin
    id 19
    name RightForeArm
    direction -0.99909 0.00114866 0.0426317
    length 8.68355
    axis -9.91764 -0.134943 0.610517 xyz
    dof rx ry rz
  end
  begin
    id 20
    name RightHand
    direction -0.992888 -0.0489538 0.10852
    length 5.28593
    axis -0.00275396 -0.197403 0.246414 xyz
    dof rx ry rz
  end
  begin
    id 21
    name LeftUpLegDummy
    direction 1 -2.30186e-007 -8.31532e-007
    length 4.04083
    axis 0 0 0 xyz
  end
  begin
    id 22
    name LeftUpLeg
    direction -0.000920097 -1 2.79241e-006
    length 17.4221
    axis -3.48782 0.00143434 -0.0532288 xyz
    dof rx ry rz
  end
  begin
    id 23
    name LeftLeg
    direction -0.000920097 -1 2.7912e-006
    length 17.1239
    axis 3.68162 -0.00806512 -0.0529896 xyz
    dof rx ry rz
  end
  begin
    id 24
    name LeftFoot
    direction -2.57845e-005 -3.987e-007 1
    length 6.72091
    axis 3.02372e-005 -0.00147829 -0.214229 xyz
    dof rx ry rz
  end
  begin
    id 25
    name LeftToes
    direction 0.00813577 -0.00488255 0.999955
    length 3.85048
    axis 3.89895e-005 -0.0014783 -0.214229 xyz
    dof rx ry rz
  end
:hierarchy
  begin
    root RightUpLegDummy SpineDummy LeftUpLegDummy
    RightUpLegDummy RightUpLeg
    RightUpLeg RightLeg
    RightLeg RightFoot
    RightFoot RightToes
    SpineDummy Spine
    Spine Spine1
    Spine1 HEadDummy LeftShoulder1Dummy RightShoulderDummy
    HEadDummy HEad
    LeftShoulder1Dummy LeftShoulder1
    LeftShoulder1 LeftArm
    LeftArm LeftForeArm
    LeftForeArm LeftHand
    RightShoulderDummy RightShoulder
    RightShoulder RightArm
    RightArm RightForeArm
    RightForeArm RightHand
    LeftUpLegDummy LeftUpLeg
    LeftUpLeg LeftLeg
    LeftLeg LeftFoot
    LeftFoot LeftToes
  end

:SAMPLES-PER-SECOND 30
:FULLY-SPECIFIED
:DEGREES
32
root  -4.49102 34.5705 -32.6049 -170.184 11.6299 -177.541
RightUpLeg  -10.1748 -11.1034 0.176353
RightLeg  4.53726 0.896821 0.014305
RightFoot  7.89566 0.010823 0.234418
RightToes  -28.7624 -0.135492 -0.243273
Spine  -2.39377 -1.65959 0.615445
Spine1  -4.86739 -3.25388 1.76883
HEad  -87.7957 -52.3289 23.2988
LeftShoulder1  -1.94126e-019 -3.10601e-018 -2.51263e-017
LeftArm  -15.3939 24.8243 -79.631
LeftForeArm  35.8288 -14.5737 -2.45392
LeftHand  -0.525769 -1.80118 8.67002
RightShoulder  -4.96962e-017 0 -2.36833e-017
RightArm  -39.8327 -21.575 71.4313
RightForeArm  61.0432 11.0352 1.52713
RightHand  -0.378578 -1.11132 -10.2948
LeftUpLeg  -5.55838 13.4915 8.82165
LeftLeg  5.07261 13.796 0.331023
LeftFoot  8.35416 -0.147259 2.12152
LeftToes  -29.2018 2.25955e-006 -3.67304e-008
33
root  -4.50035 34.5759 -32.5995 -170.341 10.19 -177.676
RightUpLeg  -9.9042 -11.6888 0.075374
RightLeg  4.62206 0.0731746 0.00215762
RightFoot  7.68836 0.0184027 0.126117
RightToes  -28.311 -0.132278 -0.239835
Spine  -2.35468 -1.54109 0.576553
Spine1  -4.78716 -3.01714 1.69262
HEad  -82.7688 -48.4819 19.3113
LeftShoulder1  -1.94126e-019 -3.10601e-018 -2.51263e-017
LeftArm  -15.5156 24.4123 -79.7588
LeftForeArm  35.837 -14.9498 -2.52174
LeftHand  -0.540671 -1.85774 8.84507
RightShoulder  -4.96962e-017 0 -2.36833e-017
RightArm  -39.4819 -21.7573 71.5989
RightForeArm  60.7251 11.2603 1.51795
RightHand  -0.385089 -0.97389 -10.0809
LeftUpLeg  -5.80611 12.6632 8.76989
LeftLeg  4.981 13.2293 0.29668
LeftFoot  8.46671 -0.143074 2.06078
LeftToes  -29.1752 2.25955e-006 -3.67304e-008
34
root  -4.50481 34.5821 -32.5937 -170.503 8.97101 -177.779
RightUpLeg  -9.83986 -12.106 -0.00441513
RightLeg  5.10217 -0.727689 -0.0169779
RightFoot  7.32748 0.0252193 0.0287116
RightToes  -27.8818 -0.12961 -0.236977
Spine  -2.32293 -1.29857 0.545253
Spine1  -4.72024 -2.53442 1.62551
HEad  -76.9065 -43.5239 15.12
LeftShoulder1  -1.94126e-019 -3.10601e-018 -2.51263e-017
LeftArm  -15.3035 24.1542 -79.8312
LeftForeArm  35.574 -16.0024 -2.6774
LeftHand  -0.552163 -1.90583 8.973
RightShoulder  -4.96962e-017 0 -2.36833e-017
RightArm  -38.5305 -22.206 71.7192
RightForeArm  60.1085 11.8799 1.47824
RightHand  -0.397237 -0.652973 -9.71709
LeftUpLeg  -5.95657 11.678 8.74692
LeftLeg  4.86739 13.0182 0.266431
LeftFoot  8.61368 -0.14315 2.06217
LeftToes  -29.2023 2.25955e-006 -3.67304e-008
35
root  -4.50411 34.5839 -32.5977 -170.692 7.81763 -177.858
RightUpLeg  -9.70974 -12.6448 -0.0683955
RightLeg  5.53118 -1.30808 -0.0410728
RightFoot  6.96612 0.0295802 -0.033605
RightToes  -27.4263 -0.127777 -0.234998
Spine  -2.29072 -1.03604 0.532444
Spine1  -4.65347 -2.01157 1.59006
HEad  -71.8379 -37.3189 11.9768
LeftShoulder1  -1.94126e-019 -3.10601e-018 -2.51263e-017
LeftArm  -14.6958 24.1123 -79.8245
LeftForeArm  35.0272 -17.438 -2.85918
LeftHand  -0.568722 -2.01478 9.10815
RightShoulder  -4.96962e-017 0 -2.36833e-017
RightArm  -37.0113 -22.803 71.7488
RightForeArm  59.23 12.8352 1.38245
RightHand  -0.407644 -0.392729 -9.47858
LeftUpLeg  -6.0683 10.6967 8.75825
LeftLeg  4.82446 12.8597 0.25368
LeftFoot  8.73557 -0.143694 2.06703
LeftToes  -29.2758 2.25955e-006 -3.67304e-008
36
root  -4.5025 34.588 -32.6115 -170.912 6.59705 -177.922
RightUpLeg  -9.456 -13.374 -0.132168
RightLeg  5.83723 -1.77631 -0.0656055
RightFoot  6.67552 0.0327082 -0.0783057
RightToes  -27.3391 -0.126461 -0.233506
Spine  -2.24988 -0.836919 0.525647
Spine1  -4.57031 -1.6155 1.57078
HEad  -67.1698 -30.5512 9.47533
LeftShoulder1  -1.94126e-019 -3.10601e-018 -2.51263e-017
LeftArm  -13.9767 24.2573 -79.742
LeftForeArm  34.1396 -19.0204 -3.02652
LeftHand  -0.562876 -2.0023 9.03094
RightShoulder  -4.96962e-017 0 -2.36833e-017
RightArm  -35.6967 -23.3358 71.6914
RightForeArm  58.1601 13.7415 1.26853
RightHand  -0.421153 -0.208458 -9.46224
LeftUpLeg  -6.14698 9.60277 8.791
LeftLeg  4.77693 12.7445 0.240956
LeftFoot  8.82838 -0.144351 2.07251
LeftToes  -29.2896 2.25955e-006 -3.67304e-008
